<svg xmlns="http://www.w3.org/2000/svg" viewBox="0 0 64 64" role="img" aria-label="Earth">
  <title>Earth</title>
  <defs>
    <clipPath id="globe">
      <circle cx="32" cy="32" r="30" />
    </clipPath>
  </defs>
  <circle cx="32" cy="32" r="30" fill="#0ea5e9" />
  <g clip-path="url(#globe)">
    <path fill="#22c55e" d="M13 20c4-8 13-11 22-10 5 1 9 3 12 7-6 0-9 3-12 7-3 3-7 4-11 2-4-1-7-4-11-6Z" />
    <path fill="#16a34a" d="M9 40c5-5 12-6 18-3 5 3 5 9 1 14-4 5-12 3-16-1-3-3-4-7-3-10Z" />
    <path fill="#22c55e" d="M38 33c8-4 16 1 19 9 2 5 1 10-2 14-5-6-12-7-17-4-6 3-10-1-8-7 1-5 4-9 8-12Z" />
    <path fill="#bae6fd" d="M45 13c5 3 9 8 11 14-4-2-8-3-12-2-3 1-6-2-4-6 1-3 2-5 5-6Z" opacity="0.8" />
  </g>
  <circle cx="32" cy="32" r="30" fill="none" stroke="#075985" stroke-width="3" />
</svg>
